<svg xmlns="http://www.w3.org/2000/svg" xml:space="preserve" viewBox="0 0 128 128"><path d="m101.1 65.2-.3-27c0-7.2-3.9-13.5-9.7-17-.2-.3-.4-.5-.7-.6-2.8-1.4-5.8-2.2-9-2.2h-4.7c-.3-4.9-4.4-8.8-9.3-8.8h-6.1c-5 0-9 3.9-9.3 8.8H46c-10.6.6-19 9.2-19 19.8v27.2c-7.3 3.2-12.4 10.4-12.4 18.9v12.4c0 11.4 9.2 20.6 20.6 20.6h4c1.5.1 3.2 0 4.8 0h37c1.4 0 2.9 0 4.2.1 1.3 0 2.6.1 3.8.1 1.2 0 2.4 0 3.5-.2h.8c11.4 0 20.6-9.2 20.6-20.6V84.3c.1-8.7-5.2-16.1-12.8-19.1zm-82 36.4c4-.7 7.1-4.2 7.1-8.4V82h.8v24.6c0 2 .3 3.8 1 5.2-4.2-2-7.5-5.7-8.9-10.2zm57.2-35v-2.1h3.1v2.1h-3.1zm-3-6.1v-1.8h9.2V60.6h-9.2zm3-5.6V52h3.1v2.9h-3.1zm-24 0h-3.1V52h3.1v2.9zm-3.1 11.7v-2.4h3.1v2.4h-3.1zm6.1-6.1h-9.2v-1.9h9.2v1.9zM81 22.2h.4c2.2 0 4.3.4 6.2 1.3V43c0 2.9-2.4 5.3-5.3 5.3h-36c-2.9 0-5.3-2.4-5.3-5.3V23.4c2-.8 4.1-1.3 6.2-1.3H81zm-43.8 3.2V43c0 2.4.9 4.5 2.4 6.1 1 2.3 3.2 4 5.8 4.3v1.5h-1.1c-1 0-1.9.8-1.9 1.9v5.6c0 1 .8 1.9 1.9 1.9h1.1v4.2c0 1 .8 1.9 1.9 1.9h6.9c1 0 1.9-.8 1.9-1.9v-4.2h1.1c1 0 1.9-.8 1.9-1.9v-5.6c0-1-.8-1.9-1.9-1.9H56v-1.4h16.6v1.4h-1.1c-1 0-1.9.8-1.9 1.9V62.7c0 1 .8 1.9 1.9 1.9h1.1v3.9c0 1 .8 1.9 1.9 1.9h6.9c1 0 1.9-.8 1.9-1.9v-3.9h1.1c1 0 1.9-.8 1.9-1.9V56.8c0-1-.8-1.9-1.9-1.9h-1.1v-1.5c2.6-.3 4.8-2 5.8-4.3 1.5-1.6 2.4-3.8 2.4-6.1V26c3.4 2.9 5.6 7.3 5.6 12.2l.8 69.2c0 2.1-.5 3.6-1.4 4.5-1.9 1.9-6.2 1.7-11.1 1.6-1.4 0-2.9-.1-4.3-.1H39.3c-3.1-.1-5.6-.5-7-1.9-1-1-1.5-2.6-1.5-5V38.2c0-5.2 2.5-9.9 6.4-12.8zm72.5 57.4v15.5c-2-.6-3.5-2.4-3.5-4.6V82.8h3.5zm-8.4-4.5-.1-9c3.6 1.9 6.5 5.1 8 9h-7.9zm-74.3 0h-7.5c1.4-3.7 4.1-6.8 7.5-8.7v8.7zm-4.6 4v10.8c0 2.2-1.5 4.1-3.5 4.6V82.3h3.5zm78.6 29.3c.4-1.2.6-2.6.6-4.2l-.3-25.4h1.1v11.6c0 4.2 3 7.6 6.9 8.4-1.4 4.2-4.4 7.7-8.3 9.6zM61.3 13.4h6.1c2.9 0 5.3 2.2 5.6 5.1H55.7c.3-2.9 2.7-5.1 5.6-5.1z"/><path d="M35.2 83.3V99c0 5.2 4.2 9.4 9.4 9.4H84c5.2 0 9.4-4.2 9.4-9.4V83.3c0-5.2-4.2-9.4-9.4-9.4H44.6c-5.2 0-9.4 4.2-9.4 9.4zm54.4 0H38.9c0-3.1 2.5-5.6 5.6-5.6H84c3.1 0 5.6 2.5 5.6 5.6zM84 104.6H44.6c-3.1 0-5.6-2.5-5.6-5.6V87.1h50.7V99c-.1 3.1-2.6 5.6-5.7 5.6z"/></svg>