<svg xmlns="http://www.w3.org/2000/svg" viewBox="0 0 32 32"><path d="M27.229 14.775c-1.374-3.807-4.725-6.729-8.891-7.659a5.894 5.894 0 0 1 4.845-2.539 5.91 5.91 0 0 1 5.909 5.91 5.878 5.878 0 0 1-1.863 4.288zM15.864 4.799v3.716c5.67.231 10.199 4.888 10.199 10.614 0 2.392-.799 4.592-2.13 6.367l2.464 4.269-2.047 1.183-2.109-3.654a10.589 10.589 0 0 1-6.814 2.474c-2.579 0-4.943-.919-6.784-2.445L6.478 31.07l-2.047-1.183 2.516-4.356a10.573 10.573 0 0 1-2.156-6.402c0-5.688 4.468-10.319 10.084-10.608V4.799a1.472 1.472 0 0 1-.989-1.385 1.484 1.484 0 0 1 2.969 0 1.474 1.474 0 0 1-.991 1.385zm-8.711 14.33c0 4.57 3.704 8.273 8.273 8.273a8.272 8.272 0 1 0 0-16.545 8.273 8.273 0 0 0-8.273 8.272zm10.753 1.789h-2.969a.99.99 0 0 1-.99-.99v-3.959a.99.99 0 1 1 1.979 0v2.969h1.979a.99.99 0 0 1 .001 1.98zM3.772 14.775a5.877 5.877 0 0 1-1.864-4.288 5.91 5.91 0 0 1 5.91-5.91 5.898 5.898 0 0 1 4.845 2.539c-4.166.93-7.517 3.852-8.891 7.659z"/></svg>