<svg xmlns="http://www.w3.org/2000/svg" xml:space="preserve" viewBox="0 0 512 512"><path d="M503.9 495.832h-45.807v-255.59a40.689 40.689 0 0 0 13.442 2.284c14.153-.002 27.028-7.099 34.442-18.986 5.653-9.061 7.402-19.755 4.926-30.111-2.495-10.439-8.971-19.274-18.234-24.875L277.104 38.211c-13.019-7.872-29.192-7.873-42.208 0l-78.595 47.523V18.863c0-10.4-8.462-18.863-18.862-18.863H94.326C83.925 0 75.464 8.463 75.464 18.863v115.749L19.33 168.554c-9.263 5.601-15.738 14.434-18.234 24.875-2.476 10.357-.727 21.051 4.925 30.111 10.146 16.266 30.324 22.831 47.885 16.702v255.59H8.1A8.084 8.084 0 0 0 8.1 512h97.003a8.084 8.084 0 0 0 0-16.168H70.075V231.486l185.926-112.422 122.745 74.22a8.084 8.084 0 0 0 8.364-13.836L260.183 102.7a8.087 8.087 0 0 0-8.365 0L53.172 222.813c-11.43 6.91-26.428 3.4-33.433-7.83-3.344-5.359-4.379-11.679-2.918-17.794 1.481-6.199 5.343-11.454 10.874-14.798l90.994-55.019a8.085 8.085 0 0 0-8.365-13.836l-18.692 11.302V18.863a2.699 2.699 0 0 1 2.695-2.695h43.111a2.699 2.699 0 0 1 2.695 2.695V95.51l-6.753 4.084a8.084 8.084 0 0 0 8.365 13.836l101.517-61.383a24.551 24.551 0 0 1 25.477 0l215.567 130.342c5.531 3.345 9.393 8.601 10.874 14.798 1.462 6.115.425 12.435-2.919 17.795-4.441 7.122-12.189 11.374-20.725 11.375a24.565 24.565 0 0 1-12.708-3.546l-47.006-28.422a8.084 8.084 0 1 0-8.364 13.836l38.469 23.261v264.345H135.822a8.084 8.084 0 0 0 0 16.168h368.08a8.084 8.084 0 1 0-.002-16.167z"/><path d="M150.912 309.895v97.011c0 10.401 8.461 18.863 18.862 18.863h172.453c10.401 0 18.862-8.463 18.862-18.863v-97.011c0-10.401-8.461-18.863-18.862-18.863H169.774c-10.4 0-18.863 8.462-18.862 18.863zm97.004 99.705h-78.142a2.699 2.699 0 0 1-2.695-2.695v-56.589h80.837V409.6zm16.169-59.284h56.586a8.084 8.084 0 0 0 0-16.168h-56.586V307.2h78.143a2.699 2.699 0 0 1 2.695 2.695v97.011a2.699 2.699 0 0 1-2.695 2.695h-78.143v-59.285zm-16.169-16.169h-80.838v-24.253a2.699 2.699 0 0 1 2.695-2.695h78.143v26.948zM272.168 231.747c16.344 0 29.641-13.297 29.641-29.642s-13.297-29.642-29.641-29.642h-32.335c-16.344 0-29.641 13.297-29.641 29.642s13.297 29.642 29.641 29.642h32.335zm-45.807-29.642c0-7.43 6.044-13.474 13.473-13.474h32.335c7.429 0 13.473 6.044 13.473 13.474s-6.044 13.474-13.473 13.474h-32.335c-7.43 0-13.473-6.044-13.473-13.474z"/></svg>