<svg xmlns="http://www.w3.org/2000/svg" xml:space="preserve" viewBox="0 0 512 512">
<path d="M341.333 405.333c5.888 0 10.667-4.779 10.667-10.667S347.221 384 341.333 384H256c-5.888 0-10.667 4.779-10.667 10.667s4.779 10.667 10.667 10.667h85.333zM384 341.333H213.333c-5.888 0-10.667 4.779-10.667 10.667s4.779 10.667 10.667 10.667H384c5.888 0 10.667-4.779 10.667-10.667s-4.779-10.667-10.667-10.667zM384 426.667H213.333c-5.888 0-10.667 4.779-10.667 10.667s4.779 10.667 10.667 10.667H384c5.888 0 10.667-4.779 10.667-10.667 0-5.889-4.779-10.667-10.667-10.667zM371.968 231.573l-28.608-7.168c19.499-4.395 29.824-10.368 30.336-10.688 2.944-1.749 4.736-4.928 5.035-8.363.299-3.435-1.216-6.912-3.819-9.152-.149-.128-14.549-12.971-14.549-56.597 0-44.011-11.392-66.325-33.856-66.325h-.384c-7.232-6.507-13.696-9.28-27.456-9.28-19.349 0-61.696 19.029-61.696 75.584 0 43.499-14.315 56.405-14.272 56.405a10.572 10.572 0 0 0-4.245 9.067c.171 3.563 2.091 6.784 5.141 8.597.533.299 10.709 6.336 30.336 10.752l-28.544 7.147A58.11 58.11 0 0 0 181.334 288c0 2.837 1.109 5.568 3.115 7.552s4.715 3.115 7.552 3.115h213.355c5.888 0 10.667-4.779 10.667-10.667a58.068 58.068 0 0 0-44.055-56.427zm-167.744 45.739c3.669-12.16 13.504-21.845 26.325-25.109l38.229-9.557a10.64 10.64 0 0 0 7.765-7.744l3.968-15.829a10.668 10.668 0 0 0-1.515-8.555c-1.685-2.496-4.373-4.16-7.381-4.587-11.093-1.536-19.712-3.84-25.835-5.909 6.08-10.923 12.523-29.739 12.523-60.459 0-44.821 33.707-54.251 40.363-54.251 9.472 0 10.539 1.067 15.637 6.165a10.744 10.744 0 0 0 7.552 3.115h4.651c6.229 0 12.523 13.909 12.523 44.992 0 30.677 6.443 49.493 12.501 60.416-6.165 2.069-14.784 4.395-25.835 5.931a10.596 10.596 0 0 0-7.36 4.587 10.653 10.653 0 0 0-1.515 8.555l3.968 15.851c.96 3.819 3.925 6.827 7.765 7.765l38.229 9.557a36.797 36.797 0 0 1 26.325 25.088l-188.883-.022z"/><path d="M448 0H85.333c-17.643 0-32 14.357-32 32v53.333H42.667C36.779 85.333 32 90.112 32 96s4.779 10.667 10.667 10.667h10.667V192H42.667C36.779 192 32 196.779 32 202.667s4.779 10.667 10.667 10.667h10.667v85.333H42.667c-5.888 0-10.667 4.779-10.667 10.667S36.779 320 42.667 320h10.667v85.333H42.667C36.779 405.333 32 410.112 32 416s4.779 10.667 10.667 10.667h10.667V480c0 17.643 14.357 32 32 32H448c17.643 0 32-14.357 32-32V32c0-17.643-14.357-32-32-32zm10.667 480c0 5.888-4.8 10.667-10.667 10.667H85.333c-5.867 0-10.667-4.779-10.667-10.667v-53.333h23.296C102.379 439.061 114.112 448 128 448c17.643 0 32-14.357 32-32s-14.357-32-32-32c-13.888 0-25.621 8.939-30.037 21.333H74.667V320h23.296c4.416 12.395 16.149 21.333 30.037 21.333 17.643 0 32-14.357 32-32s-14.357-32-32-32c-13.888 0-25.621 8.939-30.037 21.333H74.667v-85.333h23.296c4.416 12.395 16.149 21.333 30.037 21.333 17.643 0 32-14.357 32-32s-14.357-32-32-32c-13.888 0-25.621 8.939-30.037 21.333H74.667v-85.333h23.296C102.379 119.061 114.112 128 128 128c17.643 0 32-14.357 32-32s-14.357-32-32-32c-13.888 0-25.621 8.939-30.037 21.333H74.667V32c0-5.888 4.8-10.667 10.667-10.667H448c5.867 0 10.667 4.779 10.667 10.667v448zm-341.334-64c0-5.888 4.8-10.667 10.667-10.667s10.667 4.779 10.667 10.667-4.8 10.667-10.667 10.667-10.667-4.779-10.667-10.667zm0-106.667c0-5.888 4.8-10.667 10.667-10.667s10.667 4.779 10.667 10.667S133.867 320 128 320s-10.667-4.779-10.667-10.667zm0-106.666c0-5.888 4.8-10.667 10.667-10.667s10.667 4.779 10.667 10.667-4.8 10.667-10.667 10.667c-5.867-.001-10.667-4.779-10.667-10.667zm0-106.667c0-5.888 4.8-10.667 10.667-10.667S138.667 90.112 138.667 96s-4.8 10.667-10.667 10.667-10.667-4.779-10.667-10.667z"/>
</svg>